<svg width="152" height="50" fill="none" xmlns="http://www.w3.org/2000/svg"><g clip-path="url(#clip0_147_2549)" fill="#fff"><path fill-rule="evenodd" clip-rule="evenodd" d="M85.532 41.85c0-.744-.3-1.028-.824-1.028-.525 0-.824.284-.824 1.029 0 .745.33 1.326 1.408 2.264 1.378 1.207 1.812 2.071 1.812 3.263 0 1.668-.839 2.622-2.457 2.622-1.617 0-2.455-.954-2.455-2.622v-.64h1.557v.745c0 .745.33 1.012.854 1.012.523 0 .853-.267.853-1.012 0-.746-.33-1.327-1.408-2.265-1.378-1.207-1.812-2.071-1.812-3.263 0-1.668.824-2.622 2.426-2.622 1.602 0 2.426.954 2.426 2.623v.327h-1.557v-.432zm-5.827 8.032h-1.647v-8.94h-1.722v-1.49h5.091v1.49h-1.722v8.94zm-5.332-1.892h-2.021l-.285 1.892h-1.513l1.678-10.43h2.41l1.678 10.43h-1.663l-.285-1.892h.001zM73.37 41.3h-.03l-.78 5.274h1.588L73.37 41.3zM67.139 50c-1.618 0-2.502-.953-2.502-2.621v-5.423c0-1.67.884-2.623 2.502-2.623 1.617 0 2.5.954 2.5 2.623v5.423c0 1.668-.883 2.622-2.5 2.622zm.853-8.148c0-.745-.33-1.029-.853-1.029-.524 0-.854.284-.854 1.029v5.631c0 .745.33 1.029.854 1.029.523 0 .853-.284.853-1.029v-5.631zm-7.01 8.03h-2.59V39.453h2.485c1.708 0 2.441.79 2.441 2.399v.372c0 1.073-.33 1.744-1.063 2.086v.03c.884.342 1.228 1.118 1.228 2.22v.849c0 1.609-.853 2.473-2.501 2.473zm.69-7.866c0-.745-.255-1.073-.84-1.073h-.793v2.756h.643c.615 0 .988-.268.988-1.102v-.581h.001zm.164 4.439c0-.968-.314-1.266-1.063-1.266h-.734v3.203h.944c.554 0 .854-.253.854-1.028v-.909h-.001zm58.542-12.716V16.355h2.746v14.9h4.518v2.484h-7.264zm-9.685-17.384h7.488v2.484h-4.743v4.843h3.769v2.483h-3.769v5.091h4.743v2.484h-7.488V16.355zm-5.042 15.248V28.87c0-1.614-.55-2.21-1.798-2.21h-.949v7.077h-2.746V16.355h4.144c2.846 0 4.069 1.317 4.069 3.998v1.366c0 1.788-.574 2.93-1.797 3.501v.05c1.373.571 1.823 1.863 1.823 3.675v2.682c0 .844.025 1.465.299 2.111H105.9c-.149-.447-.249-.72-.249-2.135zm-.026-10.976c0-1.242-.424-1.788-1.397-1.788h-1.324v5.34h1.074c1.024 0 1.647-.448 1.647-1.838v-1.714zM95.14 30.585h-3.37l-.474 3.154h-2.52l2.795-17.384h4.019l2.796 17.384h-2.77l-.475-3.154zm-1.672-11.15h-.05l-1.298 8.79h2.646l-1.298-8.79zm-9.51 7.772h-1.299v6.531h-2.746V16.355h4.044c2.746 0 4.094 1.515 4.094 4.297v2.26c0 2.78-1.348 4.296-4.094 4.296zm1.347-6.73c0-1.241-.474-1.638-1.348-1.638H82.66v5.886h1.298c.874 0 1.348-.398 1.348-1.64v-2.608zm-11.258 6.73h-1.298v6.531h-2.746V16.355h4.044c2.746 0 4.094 1.515 4.094 4.297v2.26c0 2.78-1.348 4.296-4.094 4.296zm1.348-6.73c0-1.241-.474-1.638-1.348-1.638h-1.298v5.886h1.298c.874 0 1.348-.398 1.348-1.64v-2.608zm-10.41 10.107h-3.37l-.474 3.154H58.62l2.796-17.383h4.018l2.796 17.383h-2.77l-.474-3.154h-.001zm-1.672-11.15h-.05l-1.298 8.79h2.645l-1.297-8.79z"/><path d="M21.697 36.446L15.5 50h27.012l1.606-3.514 4.59-10.04h-27.01z"/><path d="M24.91 29.422l-.002.002 11.407-.002-4.59-10.04-1.607-3.514h-6.761l.225-.492 3.155-6.901v-.002L22.861 0l-3.874 8.473-3.156 6.901-.226.494H3.213L9.41 29.422 0 50h7.75l9.409-20.578h7.75z"/></g><defs><clipPath id="clip0_147_2549"><path fill="#fff" d="M0 0h152v50H0z"/></clipPath></defs></svg>