<svg width="152" height="50" viewBox="0 0 152 50" fill="none" xmlns="http://www.w3.org/2000/svg">
<g clip-path="url(#clip0_147_2549)">
<path fill-rule="evenodd" clip-rule="evenodd" d="M85.5319 41.8508C85.5319 41.1058 85.2324 40.8225 84.7079 40.8225C84.1833 40.8225 83.8839 41.1058 83.8839 41.8508C83.8839 42.5959 84.2135 43.177 85.292 44.1152C86.6699 45.322 87.1039 46.1864 87.1039 47.3778C87.1039 49.0464 86.2653 50.0001 84.6475 50.0001C83.0298 50.0001 82.1919 49.0464 82.1919 47.3778V46.7374H83.7493V47.4825C83.7493 48.2275 84.0789 48.4954 84.6026 48.4954C85.1264 48.4954 85.456 48.2275 85.456 47.4825C85.456 46.7374 85.1264 46.1563 84.0479 45.2181C82.67 44.0113 82.236 43.1469 82.236 41.9555C82.236 40.2869 83.06 39.3333 84.6622 39.3333C86.2645 39.3333 87.0884 40.2869 87.0884 41.9555V42.2834H85.531V41.8516L85.5319 41.8508ZM79.7053 49.8816H78.0582V40.9426H76.3361V39.4526H81.4275V40.9426H79.7053V49.8816ZM74.3732 47.9897H72.3516L72.0669 49.8816H70.5544L72.2317 39.4526H74.6424L76.3197 49.8816H74.6571L74.3724 47.9897H74.3732ZM73.3698 41.2997H73.3396L72.5605 46.5743H74.1481L73.369 41.2997H73.3698ZM67.1386 50.0009C65.5209 50.0009 64.6374 49.0472 64.6374 47.3786V41.9555C64.6374 40.2869 65.5209 39.3333 67.1386 39.3333C68.7564 39.3333 69.6399 40.2869 69.6399 41.9555V47.3786C69.6399 49.0472 68.7564 50.0009 67.1386 50.0009ZM67.992 41.8516C67.992 41.1066 67.6624 40.8233 67.1386 40.8233C66.6149 40.8233 66.2853 41.1066 66.2853 41.8516V47.4833C66.2853 48.2283 66.6149 48.5116 67.1386 48.5116C67.6624 48.5116 67.992 48.2283 67.992 47.4833V41.8516ZM60.9825 49.8824H58.3915V39.4534H60.8773C62.5848 39.4534 63.3182 40.243 63.3182 41.8516V42.2242C63.3182 43.2971 62.9886 43.9675 62.2552 44.31V44.34C63.1387 44.6825 63.483 45.4576 63.483 46.5597V47.4086C63.483 49.018 62.6297 49.8816 60.9817 49.8816L60.9825 49.8824ZM61.6711 42.0156C61.6711 41.2705 61.4165 40.9426 60.8324 40.9426H60.0386V43.6988H60.6823C61.2966 43.6988 61.6703 43.431 61.6703 42.5967V42.0156H61.6711ZM61.8359 46.455C61.8359 45.4868 61.5218 45.1889 60.7729 45.1889H60.0395V48.3923H60.9834C61.5373 48.3923 61.8367 48.1391 61.8367 47.364V46.455H61.8359Z" fill="white"/>
<path fill-rule="evenodd" clip-rule="evenodd" d="M120.378 33.7389V16.3553H123.124V31.2554H127.642V33.7389H120.378ZM110.693 16.3553H118.181V18.8388H113.438V23.6816H117.207V26.1651H113.438V31.2562H118.181V33.7397H110.693V16.3553ZM105.651 31.6028V28.8709C105.651 27.2567 105.101 26.661 103.853 26.661H102.904V33.7381H100.158V16.3553H104.302C107.148 16.3553 108.371 17.6717 108.371 20.3532V21.7191C108.371 23.5071 107.797 24.6498 106.574 25.2204V25.2699C107.947 25.8412 108.397 27.1325 108.397 28.9448V31.6271C108.397 32.4712 108.422 33.092 108.696 33.7381H105.9C105.751 33.2909 105.651 33.0182 105.651 31.6028ZM105.625 20.6267C105.625 19.385 105.201 18.8388 104.228 18.8388H102.904V24.1783H103.978C105.002 24.1783 105.625 23.7311 105.625 22.3408V20.6275V20.6267ZM95.1404 30.585H91.7703L91.2963 33.7389H88.7755L91.5713 16.3553H95.5899L98.3857 33.7389H95.6152L95.1413 30.585H95.1404ZM93.468 19.4345H93.4183L92.1203 28.2257H94.766L93.468 19.4345ZM83.9573 27.2072H82.6594V33.7381H79.9134V16.3553H83.9573C86.7033 16.3553 88.0511 17.8697 88.0511 20.6519V22.9114C88.0511 25.6927 86.7033 27.208 83.9573 27.208V27.2072ZM85.305 20.4774C85.305 19.2357 84.8311 18.8388 83.9573 18.8388H82.6594V24.7245H83.9573C84.8311 24.7245 85.305 24.3268 85.305 23.0851V20.4774ZM74.0469 27.2072H72.7489V33.7381H70.0029V16.3553H74.0469C76.7929 16.3553 78.1406 17.8697 78.1406 20.6519V22.9114C78.1406 25.6927 76.7929 27.208 74.0469 27.208V27.2072ZM75.3946 20.4774C75.3946 19.2357 74.9206 18.8388 74.0469 18.8388H72.7489V24.7245H74.0469C74.9206 24.7245 75.3946 24.3268 75.3946 23.0851V20.4774ZM64.9849 30.5842H61.6148L61.1408 33.7381H58.6199L61.4157 16.3545H65.4344L68.2302 33.7381H65.4597L64.9857 30.5842H64.9849ZM63.3125 19.4337H63.2627L61.9648 28.2249H64.6104L63.3125 19.4337Z" fill="white"/>
<path d="M21.6972 36.4463L15.5004 49.9999H42.5118L44.1181 46.4865L48.7087 36.4463H21.6972Z" fill="white"/>
<path d="M24.9091 29.422L24.9083 29.4244L36.3149 29.422L31.7244 19.3817L30.118 15.8683H23.3566L23.5818 15.3757L26.7373 8.47469L26.7365 8.47306L22.8622 0L18.988 8.47306L15.8324 15.3741L15.6064 15.8683H3.21266L9.40954 29.422L0 50H7.75018L17.1589 29.422H24.9091Z" fill="white"/>
</g>
<defs>
<clipPath id="clip0_147_2549">
<rect width="152" height="50" fill="white"/>
</clipPath>
</defs>
</svg>
